<?xml version="1.0" standalone="no"?>
<!DOCTYPE svg PUBLIC "-//W3C//DTD SVG 20010904//EN"
 "http://www.w3.org/TR/2001/REC-SVG-20010904/DTD/svg10.dtd">
<svg version="1.0" xmlns="http://www.w3.org/2000/svg"
 width="87.000000pt" height="87.000000pt" viewBox="0 0 87.000000 87.000000"
 preserveAspectRatio="xMidYMid meet">
<metadata>
Created by potrace 1.11, written by Peter Selinger 2001-2013
</metadata>
<g transform="translate(0.000000,87.000000) scale(0.100000,-0.100000)"
fill="#000000" stroke="none">
<path d="M359 804 c-34 -7 -152 -66 -156 -80 -2 -7 7 -10 24 -8 15 1 43 -6 61
-16 27 -16 40 -18 72 -11 119 27 230 -29 279 -140 57 -128 13 -257 -105 -315
-104 -51 -233 -17 -296 77 -15 23 -29 49 -29 58 -1 9 -2 31 -4 50 -3 43 12
109 28 125 27 27 56 27 120 1 26 -11 22 22 -9 63 -28 36 -95 72 -123 67 -9 -2
-24 -4 -33 -4 -35 -2 -87 -61 -104 -118 -60 -206 34 -396 230 -462 242 -82
490 96 488 349 -1 198 -154 360 -347 366 -38 1 -82 0 -96 -2z"/>
</g>
</svg>
